<svg width="1483" height="640" viewBox="0 0 1483 640" fill="none" xmlns="http://www.w3.org/2000/svg">
<path d="M228.571 0L265.522 199.043L457.143 131.379L302.472 262.759L457.143 394.138L265.522 326.474L228.571 640L191.621 326.474L0 394.138L154.671 262.759L0 131.379L191.621 199.043L228.571 0Z" fill="#CCA67B"/>
<path d="M748.794 364L717.754 356.64C698.554 362.613 679.887 365.92 661.754 366.56H649.914C633.701 365.92 619.087 363.04 606.074 357.92C593.061 352.587 581.861 345.013 572.474 335.2C563.301 325.387 556.154 313.44 551.034 299.36C546.127 285.067 543.674 268.747 543.674 250.4C543.674 232.267 546.447 216.267 551.994 202.4C557.541 188.32 565.327 176.48 575.354 166.88C585.381 157.067 597.327 149.6 611.194 144.48C625.274 139.36 640.741 136.587 657.594 136.16C658.874 135.947 660.154 135.84 661.434 135.84C662.714 135.84 664.101 135.84 665.594 135.84C666.874 136.053 668.154 136.16 669.434 136.16C670.714 136.16 672.101 136.16 673.594 136.16C683.194 136.587 693.007 137.653 703.034 139.36C713.274 140.853 722.981 142.88 732.154 145.44V212L681.914 154.72C678.927 153.653 675.941 152.907 672.954 152.48C669.967 151.84 666.874 151.52 663.674 151.52C654.927 151.52 646.821 153.547 639.354 157.6C632.101 161.653 625.807 167.733 620.474 175.84C615.141 183.733 610.981 193.653 607.994 205.6C605.221 217.547 603.834 231.52 603.834 247.52C603.834 280.373 609.274 305.76 620.154 323.68C631.034 341.387 647.034 350.24 668.154 350.24C676.687 350.24 685.221 348.853 693.754 346.08V283.04L669.114 250.08H773.434L748.794 283.04V364ZM829.374 290.4C830.867 307.253 835.881 320.373 844.414 329.76C852.947 338.933 863.721 343.52 876.734 343.52C885.481 343.52 894.014 341.28 902.334 336.8C910.867 332.32 919.187 325.387 927.294 316L936.574 323.04C926.121 338.827 914.921 350.24 902.974 357.28C891.027 364.32 877.054 367.84 861.054 367.84C848.467 367.84 837.161 365.813 827.134 361.76C817.107 357.707 808.467 352.053 801.214 344.8C793.961 337.333 788.307 328.373 784.254 317.92C780.414 307.253 778.494 295.307 778.494 282.08C778.494 268.64 780.414 256.587 784.254 245.92C788.307 235.04 794.067 225.76 801.534 218.08C809 210.4 818.067 204.533 828.734 200.48C839.614 196.427 851.774 194.4 865.214 194.4C880.361 194.4 893.054 196.96 903.294 202.08C913.534 206.987 921.534 213.813 927.294 222.56C933.267 231.093 937.001 241.227 938.494 252.96C939.987 264.693 939.667 277.173 937.534 290.4H829.374ZM865.854 215.84C856.041 215.84 847.614 220.747 840.574 230.56C833.747 240.373 829.907 254.88 829.054 274.08H893.374C893.801 268.96 893.907 263.093 893.694 256.48C893.481 249.653 892.414 243.253 890.494 237.28C888.787 231.307 885.907 226.293 881.854 222.24C878.014 217.973 872.681 215.84 865.854 215.84ZM1066.24 196.96C1074.77 196.96 1082.34 198.347 1088.96 201.12C1095.57 203.68 1101.12 207.84 1105.6 213.6C1110.08 219.36 1113.49 226.827 1115.84 236C1118.4 245.173 1119.68 256.373 1119.68 269.6L1119.36 338.4L1137.92 364H1053.76L1071.04 338.4L1071.36 270.88C1071.36 254.24 1069.12 242.293 1064.64 235.04C1060.37 227.787 1053.86 224.16 1045.12 224.16C1039.57 224.16 1033.92 225.547 1028.16 228.32C1022.4 230.88 1016.74 234.933 1011.2 240.48V338.4L1029.76 364H944.636L962.876 338.08L962.556 231.2L945.276 205.6L1011.2 190.88V219.36C1018.88 211.893 1027.3 206.24 1036.48 202.4C1045.65 198.56 1055.57 196.747 1066.24 196.96ZM1193.77 290.4C1195.27 307.253 1200.28 320.373 1208.81 329.76C1217.35 338.933 1228.12 343.52 1241.13 343.52C1249.88 343.52 1258.41 341.28 1266.73 336.8C1275.27 332.32 1283.59 325.387 1291.69 316L1300.97 323.04C1290.52 338.827 1279.32 350.24 1267.37 357.28C1255.43 364.32 1241.45 367.84 1225.45 367.84C1212.87 367.84 1201.56 365.813 1191.53 361.76C1181.51 357.707 1172.87 352.053 1165.61 344.8C1158.36 337.333 1152.71 328.373 1148.65 317.92C1144.81 307.253 1142.89 295.307 1142.89 282.08C1142.89 268.64 1144.81 256.587 1148.65 245.92C1152.71 235.04 1158.47 225.76 1165.93 218.08C1173.4 210.4 1182.47 204.533 1193.13 200.48C1204.01 196.427 1216.17 194.4 1229.61 194.4C1244.76 194.4 1257.45 196.96 1267.69 202.08C1277.93 206.987 1285.93 213.813 1291.69 222.56C1297.67 231.093 1301.4 241.227 1302.89 252.96C1304.39 264.693 1304.07 277.173 1301.93 290.4H1193.77ZM1230.25 215.84C1220.44 215.84 1212.01 220.747 1204.97 230.56C1198.15 240.373 1194.31 254.88 1193.45 274.08H1257.77C1258.2 268.96 1258.31 263.093 1258.09 256.48C1257.88 249.653 1256.81 243.253 1254.89 237.28C1253.19 231.307 1250.31 226.293 1246.25 222.24C1242.41 217.973 1237.08 215.84 1230.25 215.84ZM1309.04 322.72C1309.04 314.4 1310.64 307.467 1313.84 301.92C1317.25 296.373 1321.62 291.68 1326.96 287.84C1332.29 284 1338.26 280.8 1344.88 278.24C1351.49 275.467 1358.1 272.907 1364.72 270.56C1369.41 269.067 1374.21 267.467 1379.12 265.76C1384.24 263.84 1388.82 261.6 1392.88 259.04C1396.93 256.48 1400.24 253.493 1402.8 250.08C1405.36 246.453 1406.64 242.187 1406.64 237.28C1406.64 232.373 1405.36 228 1402.8 224.16C1400.24 220.32 1396.5 218.4 1391.6 218.4H1374.32L1332.4 255.52L1310.32 198.88H1461.04L1456.88 214.56V338.08L1475.76 364H1408.24V338.72C1402.05 347.04 1394.37 353.867 1385.2 359.2C1376.24 364.32 1366.42 367.093 1355.76 367.52C1348.93 367.52 1342.64 366.453 1336.88 364.32C1331.33 362.4 1326.42 359.52 1322.16 355.68C1318.1 351.627 1314.9 346.827 1312.56 341.28C1310.21 335.733 1309.04 329.547 1309.04 322.72ZM1408.56 265.44C1405.78 269.92 1402.05 273.76 1397.36 276.96C1392.66 280.16 1387.86 283.147 1382.96 285.92C1379.54 287.84 1376.24 289.867 1373.04 292C1369.84 293.92 1366.96 296.16 1364.4 298.72C1361.84 301.067 1359.81 303.733 1358.32 306.72C1356.82 309.707 1356.08 313.227 1356.08 317.28C1356.08 324.32 1358.32 329.44 1362.8 332.64C1367.49 335.84 1372.93 337.227 1379.12 336.8C1384.66 336.587 1389.89 335.307 1394.8 332.96C1399.92 330.4 1404.5 327.307 1408.56 323.68V265.44Z" fill="#4E5D4C"/>
</svg>
