<svg width="800" height="800" viewBox="0 0 800 800" fill="none" xmlns="http://www.w3.org/2000/svg">
<path d="M595.851 585.5C582.346 585.53 568.969 582.885 556.491 577.719C544.013 572.553 532.682 564.967 523.151 555.4L418.151 450.4C414.434 446.869 409.503 444.9 404.376 444.9C399.249 444.9 394.318 446.869 390.601 450.4L285.201 555.8C275.673 565.372 264.342 572.96 251.864 578.127C239.385 583.293 226.006 585.935 212.501 585.9H191.801L324.801 718.9C366.301 760.4 433.651 760.4 475.151 718.9L608.501 585.5H595.851ZM212.501 214.1C240.001 214.1 265.801 224.8 285.201 244.2L390.601 349.6C392.412 351.414 394.563 352.853 396.931 353.835C399.299 354.817 401.837 355.323 404.401 355.323C406.964 355.323 409.503 354.817 411.871 353.835C414.239 352.853 416.39 351.414 418.201 349.6L523.201 244.6C532.723 235.034 544.045 227.449 556.515 222.282C568.984 217.116 582.353 214.471 595.851 214.5H608.501L475.151 81.1498C455.208 61.2211 428.169 50.0264 399.976 50.0264C371.783 50.0264 344.743 61.2211 324.801 81.1498L191.801 214.15L212.501 214.1Z" fill="#4DB6AC"/>
<path d="M718.85 324.8L638.25 244.2C636.441 244.943 634.506 245.333 632.55 245.35H595.9C576.95 245.35 558.4 253.05 545.05 266.45L440.05 371.45C435.381 376.144 429.83 379.869 423.716 382.41C417.602 384.952 411.046 386.261 404.425 386.261C397.804 386.261 391.249 384.952 385.135 382.41C379.021 379.869 373.47 376.144 368.8 371.45L263.4 266C249.878 252.533 231.585 244.949 212.5 244.9H167.5C165.635 244.885 163.788 244.529 162.05 243.85L81.1504 324.8C39.6504 366.3 39.6504 433.65 81.1504 475.2L162.05 556.1C163.769 555.408 165.599 555.035 167.45 555H212.5C231.5 555 250 547.35 263.4 533.95L368.75 428.5C378.363 419.347 391.127 414.242 404.4 414.242C417.673 414.242 430.438 419.347 440.05 428.5L545.05 533.5C558.4 546.9 576.95 554.55 595.9 554.55H632.55C634.55 554.55 636.5 555.05 638.25 555.75L718.85 475.15C760.35 433.65 760.35 366.3 718.85 324.8Z" fill="#4DB6AC"/>
</svg>
